<?xml version="1.0" standalone="no"?>
<!DOCTYPE svg PUBLIC "-//W3C//DTD SVG 20010904//EN"
 "http://www.w3.org/TR/2001/REC-SVG-20010904/DTD/svg10.dtd">
<svg version="1.0" xmlns="http://www.w3.org/2000/svg"
 width="2850.000000pt" height="2850.000000pt" viewBox="0 0 2850.000000 2850.000000"
 preserveAspectRatio="xMidYMid meet">
<metadata>
Created by potrace 1.11, written by Peter Selinger 2001-2013
</metadata>
<g transform="translate(0.000000,2850.000000) scale(0.100000,-0.100000)"
fill="#000000" stroke="none">
<path d="M1180 15595 l0 -3855 9618 0 9619 0 842 1176 c576 803 840 1181 836
1192 -3 9 -769 1214 -1702 2679 l-1696 2663 -8759 0 -8758 0 0 -3855z m4930
3011 c1244 -113 2063 -593 2355 -1381 84 -225 120 -430 131 -733 l7 -192
-1049 2 -1049 3 -7 125 c-16 256 -41 334 -137 430 -143 142 -396 210 -776 210
-739 0 -1181 -295 -1340 -893 -94 -352 -83 -863 27 -1191 242 -728 958 -994
2171 -805 l137 21 0 199 0 199 -690 0 -690 0 0 770 0 770 1670 0 1670 0 0
-1640 c0 -1303 -3 -1642 -12 -1645 -24 -9 -824 -124 -1103 -160 -1510 -189
-2513 -164 -3343 86 -1078 325 -1734 1012 -1936 2029 -47 237 -60 391 -60 705
1 379 30 639 105 940 242 961 844 1609 1797 1936 387 133 762 199 1317 233
127 8 648 -4 805 -18z m7928 -923 l2 -793 -1480 0 -1480 0 0 -230 0 -230 1395
0 1395 0 0 -790 0 -790 -1395 0 -1395 0 0 -270 0 -270 1520 0 1520 0 0 -795 0
-795 -2562 2 -2563 3 -3 2865 c-1 1576 0 2871 3 2878 3 10 513 12 2522 10
l2518 -3 3 -792z m3864 -769 l1003 -1567 5 1268 5 1268 938 -1477 937 -1476 0
-1105 0 -1105 -1223 0 -1224 0 -984 1563 -984 1562 -3 -1563 -2 -1562 -938 2
-937 3 -3 2865 c-1 1576 0 2871 3 2878 3 9 253 12 1204 12 l1199 0 1004 -1566z"/>
<path d="M20509 19418 c663 -1052 2539 -3986 2546 -3984 5 1 642 885 1415
1964 773 1078 1420 1981 1438 2006 l33 46 -2726 0 -2727 0 21 -32z"/>
<path d="M24951 15462 c-1466 -2045 -2667 -3724 -2669 -3730 -3 -9 609 -12
2667 -12 l2671 0 0 3730 c0 2052 -1 3730 -2 3730 -2 0 -1202 -1674 -2667
-3718z"/>
<path d="M1841 11249 c-348 -75 -571 -279 -596 -545 -23 -243 114 -437 407
-574 113 -52 252 -99 488 -165 319 -88 397 -121 488 -209 66 -63 95 -125 100
-221 7 -141 -50 -245 -185 -335 -263 -176 -762 -164 -980 25 -57 49 -113 162
-120 244 l-6 61 -128 0 -129 0 0 -27 c0 -49 30 -154 60 -217 109 -226 360
-378 665 -401 100 -8 339 9 458 31 422 80 643 310 624 649 -17 302 -205 447
-802 615 -464 131 -618 225 -672 409 -56 195 66 369 317 449 99 32 172 42 299
42 312 0 510 -105 547 -290 l11 -55 127 -3 128 -3 -7 43 c-39 230 -225 396
-526 468 -138 34 -433 38 -568 9z"/>
<path d="M5240 11265 c-8 -2 -49 -9 -90 -15 -220 -36 -432 -142 -580 -290
-148 -147 -247 -347 -296 -596 -26 -129 -26 -433 0 -569 69 -369 256 -634 554
-784 198 -100 478 -146 737 -122 301 29 515 118 697 290 231 218 338 503 338
898 0 244 -34 420 -114 588 -158 334 -423 527 -811 590 -78 13 -384 20 -435
10z m455 -214 c44 -12 123 -43 175 -68 81 -40 109 -61 191 -143 129 -127 193
-241 243 -430 105 -392 14 -832 -224 -1080 -142 -147 -314 -225 -555 -250
-173 -18 -392 18 -528 87 -181 91 -323 248 -403 443 -53 130 -75 243 -81 411
-10 286 43 500 172 695 122 183 289 293 525 345 119 26 368 21 485 -10z"/>
<path d="M19590 11256 c-253 -46 -442 -138 -596 -291 -169 -168 -268 -374
-310 -650 -21 -137 -14 -433 14 -560 104 -473 408 -766 886 -852 124 -22 398
-22 522 0 454 82 760 360 869 792 52 205 58 503 15 710 -94 443 -377 732 -820
837 -111 26 -465 34 -580 14z m430 -187 c96 -15 235 -64 315 -111 95 -55 227
-191 284 -292 95 -167 142 -364 142 -591 0 -332 -99 -588 -299 -777 -134 -125
-301 -196 -515 -218 -201 -20 -396 16 -565 105 -312 163 -496 573 -453 1009
44 452 279 762 647 855 43 11 93 22 109 24 63 9 273 6 335 -4z"/>
<path d="M26413 11256 c-307 -58 -538 -229 -604 -448 -17 -56 -21 -88 -17
-176 3 -99 6 -113 41 -186 28 -59 54 -95 105 -145 136 -132 312 -212 735 -332
320 -91 418 -132 497 -209 103 -100 133 -239 80 -375 -48 -124 -196 -231 -388
-282 -82 -21 -119 -25 -237 -25 -244 0 -410 49 -520 153 -65 61 -100 130 -117
228 l-12 71 -127 0 -128 0 5 -37 c20 -144 59 -237 141 -335 98 -117 250 -208
418 -250 77 -19 115 -22 265 -21 517 3 840 153 951 440 31 82 39 259 14 349
-34 124 -130 237 -269 315 -106 59 -246 110 -496 183 -389 112 -493 158 -601
266 -79 78 -104 137 -103 246 0 168 129 296 369 366 70 20 102 23 255 23 151
0 186 -3 253 -23 186 -53 281 -141 303 -280 l7 -42 127 0 128 0 -14 61 c-53
228 -233 383 -522 451 -113 26 -430 34 -539 14z"/>
<path d="M16990 10085 l0 -1155 120 0 120 0 0 1155 0 1155 -120 0 -120 0 0
-1155z"/>
<path d="M8020 10080 l0 -1150 780 0 780 0 0 95 0 95 -660 0 -660 0 0 1055 0
1055 -120 0 -120 0 0 -1150z"/>
<path d="M10843 10418 c4 -889 3 -872 64 -1026 57 -141 179 -286 310 -365 231
-140 603 -183 923 -106 107 26 267 103 345 166 117 95 200 224 252 388 l28 90
3 833 3 832 -115 0 -115 0 -3 -787 c-4 -776 -4 -789 -26 -868 -80 -293 -285
-459 -609 -495 -358 -39 -661 121 -770 408 -51 135 -52 159 -53 980 l0 762
-120 0 -121 0 4 -812z"/>
<path d="M13820 11135 l0 -95 423 -2 422 -3 3 -1052 2 -1053 120 0 120 0 2
1053 3 1052 418 3 417 2 0 95 0 95 -965 0 -965 0 0 -95z"/>
<path d="M22410 10080 l0 -1150 115 0 115 0 0 990 c0 545 3 990 8 990 4 -1
326 -446 717 -990 l710 -990 152 0 153 0 0 1150 0 1150 -120 0 -120 0 0 -1012
c-1 -969 -1 -1012 -18 -992 -10 12 -339 467 -732 1013 l-714 991 -133 0 -133
0 0 -1150z"/>
</g>
</svg>
